<svg width="217" height="46" viewBox="0 0 217 46" fill="none" xmlns="http://www.w3.org/2000/svg">
<path d="M41.9999 14.0089C41.9919 8.26303 37.5169 3.55386 32.2665 1.85469C25.7465 -0.255317 17.1473 0.0505169 10.9215 2.98802C3.37563 6.54886 1.00521 14.3489 0.91688 22.128C0.84438 28.5239 1.48271 45.3693 10.9844 45.4893C18.0444 45.5789 19.0957 36.4818 22.3623 32.1006C24.6865 28.9835 27.679 28.1031 31.3628 27.1914C37.694 25.6243 42.009 20.6276 41.9999 14.0089Z" fill="black"/>
<path d="M59.832 12.4176C59.832 11.3186 60.6453 10.5712 61.9202 10.5712H68.0197C73.5477 10.5712 77.3064 13.6155 77.3064 18.0885C77.3064 22.4846 73.5807 25.7486 68.0197 25.7486H67.1735C65.0414 25.7486 63.9423 26.8476 63.9423 28.6171V33.6286C63.9423 35.0463 63.1291 35.9365 61.8872 35.9365C60.6453 35.9365 59.832 35.0463 59.832 33.6286V12.4176ZM63.9423 18.7699C63.9423 21.0009 65.0743 22.0669 67.2394 22.0669H67.7669C70.8112 22.0669 73.0532 20.825 73.0532 18.0995C73.0532 15.3739 70.8222 14.132 67.7669 14.132H67.2504C65.0853 14.132 63.9533 15.1981 63.9533 17.4291V18.7699H63.9423ZM77.3174 33.9803C77.3174 35.1452 78.1306 35.9255 79.3725 35.9255C80.1858 35.9255 80.9331 35.398 81.3617 34.299L82.1091 32.3098C82.7135 30.7162 83.7796 29.9689 84.9445 29.9689H91.6815C92.8465 29.9689 93.9125 30.7162 94.517 32.3098L95.2643 34.299C95.6929 35.398 96.4292 35.9255 97.2535 35.9255C98.4954 35.9255 99.3087 35.1452 99.3087 33.9803C99.3087 33.6615 99.2427 33.2659 99.0999 32.8812L91.0551 11.956C90.5605 10.6811 89.4285 10.0437 88.3295 10.0437C87.2305 10.0437 86.0985 10.6811 85.6039 11.956L77.5591 32.8812C77.3833 33.2769 77.3174 33.6615 77.3174 33.9803ZM85.1533 24.4738C85.1533 24.0891 85.2632 23.7264 85.4391 23.1989L86.9667 18.9787C87.2525 18.1654 87.747 17.7698 88.3185 17.7698C88.89 17.7698 89.3846 18.1544 89.6703 18.9787L91.1979 23.1989C91.3738 23.7264 91.4837 24.0891 91.4837 24.4738C91.4837 25.5398 90.8792 26.2872 89.2856 26.2872H87.3734C85.7578 26.2872 85.1533 25.5398 85.1533 24.4738ZM97.9569 12.4945C97.9569 11.3625 98.7701 10.5822 100.089 10.5822H116.398C117.706 10.5822 118.53 11.3625 118.53 12.4945C118.53 13.6265 117.717 14.4068 116.398 14.4068H113.673C111.508 14.4068 110.343 15.5058 110.343 18.0226V33.5956C110.343 35.0463 109.53 35.9365 108.255 35.9365C106.98 35.9365 106.167 35.0463 106.167 33.5956V18.0226C106.167 15.5058 105.002 14.4068 102.837 14.4068H100.111C98.7701 14.4068 97.9569 13.6265 97.9569 12.4945ZM122.355 33.6286C122.355 35.0463 123.168 35.9365 124.41 35.9365C125.652 35.9365 126.465 35.0463 126.465 33.6286V27.9906C126.465 26.3971 127.389 25.7157 128.52 25.7157H128.806C129.554 25.7157 130.301 26.1772 130.751 26.8476L136.137 34.7606C136.631 35.5079 137.269 35.9255 138.082 35.9255C139.148 35.9255 139.994 35.0353 139.994 33.9803C139.994 33.5516 139.851 33.0901 139.533 32.6285L135.95 27.595C135.521 26.9905 135.345 26.496 135.345 26.0673C135.345 25.1771 136.126 24.5397 137.049 23.8693C138.719 22.6274 140.522 21.0009 140.522 17.8797C140.522 13.5166 137.115 10.5712 131.51 10.5712H124.377C123.102 10.5712 122.322 11.3186 122.322 12.4176V33.6286H122.355ZM126.465 18.4512V17.3851C126.465 15.0772 127.674 14.121 129.51 14.121H131.279C134.323 14.121 136.28 15.253 136.28 17.8797C136.28 20.5063 134.224 21.7043 131.169 21.7043H129.499C127.674 21.7152 126.465 20.7591 126.465 18.4512ZM145.797 33.5516V12.4176C145.797 11.3186 146.577 10.5712 147.852 10.5712H161.26C162.535 10.5712 163.315 11.3186 163.315 12.4176C163.315 13.5166 162.535 14.2639 161.26 14.2639H152.787C151.116 14.2639 149.918 15.253 149.918 17.1324V17.9127C149.918 19.792 151.127 20.7811 152.787 20.7811H159.348C160.623 20.7811 161.403 21.5284 161.403 22.6274C161.403 23.7264 160.623 24.4738 159.348 24.4738H153.04C151.369 24.4738 149.918 25.5068 149.918 27.595V28.5841C149.918 30.6722 151.369 31.7053 153.04 31.7053H161.271C162.546 31.7053 163.326 32.4526 163.326 33.5516C163.326 34.6507 162.546 35.398 161.271 35.398H147.863C146.577 35.398 145.797 34.6507 145.797 33.5516ZM165.755 22.9901C165.755 15.33 171.503 10.0437 178.24 10.0437C184.977 10.0437 190.725 15.33 190.725 22.9901C190.725 30.6502 184.977 35.9365 178.24 35.9365C171.503 35.9365 165.755 30.6502 165.755 22.9901ZM170.437 22.9901C170.437 28.3753 173.624 31.8152 178.24 31.8152C182.845 31.8152 186.043 28.3753 186.043 22.9901C186.043 17.561 182.856 14.165 178.24 14.165C173.635 14.154 170.437 17.561 170.437 22.9901ZM195.648 33.6286C195.648 35.0463 196.462 35.9365 197.704 35.9365C198.945 35.9365 199.759 35.0463 199.759 33.6286V22.7813C199.759 21.4735 200.539 20.836 201.352 20.836C201.99 20.836 202.517 21.1877 202.913 21.8251L209.716 33.2109C210.639 34.7715 211.485 35.9365 213.222 35.9365C214.892 35.9365 216.09 34.7276 216.09 32.7823V12.3516C216.09 10.9339 215.277 10.0437 214.035 10.0437C212.793 10.0437 211.98 10.9339 211.98 12.3516V23.1989C211.98 24.5067 211.199 25.1442 210.386 25.1442C209.749 25.1442 209.21 24.7925 208.826 24.1551L202.023 12.7693C201.099 11.2087 200.253 10.0437 198.517 10.0437C196.846 10.0437 195.648 11.2526 195.648 13.1979V33.6286Z" fill="black"/>
</svg>
