<svg width="742" height="215" viewBox="0 0 742 215" fill="none" xmlns="http://www.w3.org/2000/svg">
<g clip-path="url(#clip0_7470_97736)">
<mask id="mask0_7470_97736" style="mask-type:luminance" maskUnits="userSpaceOnUse" x="0" y="0" width="742" height="216">
<path d="M742 0H0V215.4H742V0Z" fill="white"/>
</mask>
<g mask="url(#mask0_7470_97736)">
<path d="M44.6 133.5C36.7 133.6 28.9 132.2 21.5 129.5C13.9 126.6 7 122.4 1 116.9L12 103.7C16.6 107.8 21.8 111.1 27.4 113.7C33 116.1 39 117.3 45 117.2C49.7 117.5 54.4 116.2 58.4 113.6C61.6 111.5 63.5 107.9 63.4 104.1V103.7C63.4 102 63.1 100.3 62.4 98.7001C61.6 97.1001 60.3 95.7001 58.8 94.7001C56.6 93.2001 54.2 92.0001 51.6 91.1001C47.7 89.8001 43.8 88.6001 39.8 87.7001C34.8 86.6001 29.8 85.1001 24.9 83.4001C21 82.0001 17.3 80.0001 14 77.4001C11.1 75.1001 8.8 72.2001 7.3 68.8001C5.7 64.9001 4.9 60.8001 5 56.6001V56.3001C4.9 47.9001 8.6 39.9001 15 34.4001C18.3 31.6001 22.1 29.5001 26.2 28.2001C30.8 26.7001 35.6 25.9001 40.5 26.0001C47.5 25.9001 54.5 27.0001 61.2 29.4001C67.4 31.7001 73.3 35.0001 78.4 39.2001L68.7 53.1001C64.3 49.8001 59.6 47.2001 54.5 45.1001C50 43.3001 45.2 42.4001 40.3 42.3001C35.9 42.0001 31.5 43.3001 27.9 45.8001C25.1 47.9001 23.4 51.2001 23.5 54.7001V55.0001C23.4 56.8001 23.8 58.6001 24.5 60.3001C25.4 62.0001 26.8 63.4001 28.5 64.3001C30.8 65.8001 33.3 67.0001 35.9 67.8001C39.1 68.9001 43.2 70.0001 48.2 71.2001C53.2 72.4001 58 74.0001 62.8 75.8001C66.6 77.2001 70.2 79.3001 73.3 82.0001C76.1 84.4001 78.3 87.3001 79.7 90.7001C81.2 94.3001 82 98.1001 81.9 101.9V102.2C82 106.7 81 111.2 79.1 115.3C77.3 119.1 74.7 122.5 71.5 125.2C68 128 64 130.1 59.7 131.3C54.9 132.8 49.8 133.5 44.6 133.5Z" fill="#101820"/>
<path d="M96.9004 53.2001H115.1V66.3001C118 62.1001 121.6 58.6001 125.8 55.8001C130.6 52.8001 136.2 51.3001 141.8 51.5001C151.3 51.5001 160.4 55.3001 167 62.1001C170.6 65.8001 173.4 70.1001 175.3 74.9001C177.5 80.5001 178.5 86.4001 178.4 92.4001V92.7001C178.5 98.6001 177.5 104.6 175.4 110.1C173.6 114.9 170.9 119.2 167.4 123C164 126.5 159.9 129.2 155.4 131C151.1 132.8 146.4 133.7 141.8 133.6C136.2 133.8 130.6 132.4 125.8 129.6C121.7 126.9 118 123.5 115.1 119.6V155.5H96.9004V53.2001ZM137.6 117.9C140.6 117.9 143.6 117.3 146.3 116.1C149 114.9 151.4 113.2 153.5 111.1C155.6 108.8 157.3 106.1 158.3 103.1C159.5 99.7001 160.2 96.2001 160.1 92.6001V92.3001C160.1 88.8001 159.5 85.2001 158.3 81.9001C157.2 78.9001 155.6 76.2001 153.5 73.9001C145.1 65.1001 131.2 64.8001 122.4 73.2001C122.1 73.5001 121.8 73.7001 121.6 74.0001C119.5 76.3001 117.8 79.0001 116.6 82.0001C115.3 85.3001 114.7 88.8001 114.7 92.3001V92.7001C114.7 96.2001 115.3 99.7001 116.6 103C117.7 106 119.4 108.7 121.6 111C123.7 113.2 126.2 114.9 128.9 116.1C131.7 117.3 134.6 117.9 137.6 117.9Z" fill="#101820"/>
<path d="M192.4 53.2001H210.6V71.0001C212.8 65.4001 216.5 60.4001 221.2 56.7001C226.2 53.1001 232.3 51.3001 238.5 51.9001V71.0001H237.5C233.8 71.0001 230.1 71.6001 226.6 72.9001C223.3 74.2001 220.4 76.2001 218.1 78.7001C215.6 81.5001 213.7 84.9001 212.6 88.5001C211.2 92.9001 210.5 97.5001 210.6 102.1V132.1H192.5V53.2001H192.4Z" fill="#101820"/>
<path d="M285.601 133.7C280.101 133.8 274.701 132.7 269.601 130.7C264.801 128.8 260.401 126 256.801 122.4C253.101 118.7 250.201 114.3 248.201 109.5C246.101 104.2 245.001 98.6002 245.101 92.9002V92.6001C245.001 87.1001 246.001 81.7001 247.901 76.6001C249.701 71.8001 252.401 67.3002 255.901 63.5002C259.301 59.8002 263.301 56.8002 267.901 54.7002C272.801 52.5002 278.101 51.4002 283.401 51.5002C289.101 51.4002 294.701 52.6001 299.901 54.9001C304.501 57.1001 308.601 60.2002 311.901 64.2002C315.201 68.2002 317.701 72.8002 319.201 77.7002C320.801 82.9002 321.601 88.4002 321.601 93.9002V96.4002C321.601 97.3002 321.601 98.2001 321.401 99.0001H263.401C264.001 104.7 266.801 110 271.101 113.8C275.301 117.3 280.601 119.1 286.101 118.9C290.101 119 294.101 118.2 297.701 116.5C301.201 114.7 304.501 112.3 307.301 109.5L317.901 118.9C314.101 123.3 309.601 127 304.401 129.6C298.501 132.5 292.101 133.9 285.601 133.7ZM303.501 87.0001C303.201 84.3001 302.501 81.6001 301.501 79.0001C300.601 76.6001 299.201 74.3002 297.501 72.4002C295.801 70.6002 293.801 69.1001 291.501 68.0001C284.101 64.7001 275.501 66.3001 269.701 72.0001C265.901 76.1001 263.601 81.4001 263.001 87.0001H303.501Z" fill="#101820"/>
<path d="M383.299 131.9V122.2C380.399 125.5 376.899 128.2 372.999 130.2C368.299 132.5 362.999 133.6 357.799 133.5C354.199 133.5 350.499 133.1 347.099 132C343.899 131 340.899 129.5 338.199 127.4C335.599 125.3 333.599 122.6 332.099 119.7C330.499 116.4 329.699 112.8 329.799 109.2V108.9C329.699 105 330.499 101.1 332.199 97.5001C333.799 94.4001 335.999 91.6001 338.799 89.5001C341.899 87.3001 345.299 85.7001 348.999 84.7001C353.199 83.6001 357.399 83.1001 361.699 83.2001C365.799 83.1001 369.799 83.5001 373.899 84.1001C377.199 84.7001 380.399 85.5001 383.499 86.5001V85.1001C383.699 82.8001 383.299 80.4001 382.399 78.3001C381.499 76.1001 380.199 74.2001 378.499 72.6001C374.399 69.5001 369.299 67.9001 364.099 68.2001C360.099 68.2001 355.999 68.6001 352.099 69.6001C348.499 70.6001 344.999 71.8001 341.499 73.2001L336.499 58.7001C340.799 56.7001 345.299 55.1001 349.999 53.9001C355.399 52.6001 360.999 51.9001 366.599 52.0001C378.299 52.0001 386.999 54.9001 392.699 60.7001C398.699 67.4001 401.799 76.3002 401.199 85.3002V132L383.299 131.9ZM383.799 99.0001C381.199 98.0001 378.499 97.3002 375.799 96.8002C372.499 96.2002 369.199 95.9002 365.899 95.9002C361.299 95.7002 356.699 96.8001 352.699 99.2001C351.199 100.2 349.999 101.5 349.099 103.1C348.299 104.7 347.899 106.4 347.899 108.2V108.5C347.699 112 349.399 115.2 352.299 117.1C355.499 119.2 359.299 120.2 363.099 120.1C365.899 120.1 368.699 119.7 371.399 118.9C373.699 118.2 375.899 117.2 377.899 115.8C379.699 114.4 381.299 112.6 382.299 110.6C383.299 108.5 383.899 106.2 383.899 103.8L383.799 99.0001Z" fill="#101820"/>
<path d="M418.2 23.1001H436.4V88.2001L469.1 53.3001H491L459.6 85.2001L492 131.9H471.1L447.4 97.9001L436.3 109.4V131.9H418.1V23.1001H418.2Z" fill="#101820"/>
<path d="M536.7 133.7C531.2 133.8 525.8 132.7 520.7 130.7C510.9 126.9 503.2 119.2 499.3 109.4C497.2 104.1 496.1 98.5001 496.2 92.8001V92.5C496.1 87 497.1 81.6 499 76.5C500.8 71.7 503.5 67.2001 507 63.4001C510.4 59.7001 514.4 56.7001 519 54.6001C523.9 52.4001 529.1 51.3001 534.5 51.4001C540.2 51.3001 545.9 52.5001 551 54.9001C555.6 57.1001 559.6 60.2001 562.8 64.2001C566 68.2001 568.4 72.8001 569.9 77.7001C571.5 82.9001 572.3 88.4001 572.3 93.9001V96.4001C572.3 97.3001 572.3 98.2 572.1 99H514.4C515 104.7 517.8 110 522.1 113.8C526.3 117.3 531.6 119.1 537.1 118.9C541.1 119 545.1 118.2 548.7 116.5C552.4 114.7 555.7 112.4 558.6 109.5L569.2 118.9C565.5 123.3 560.9 127 555.7 129.6C549.7 132.5 543.2 133.9 536.7 133.7ZM554.5 87C554.2 84.3 553.5 81.6 552.5 79C551.6 76.6 550.2 74.3001 548.5 72.4001C546.8 70.5001 544.8 68.9001 542.5 67.7001C535.1 64.3001 526.3 65.9001 520.7 71.8001C516.9 75.9001 514.6 81.2001 514 86.8001L554.5 87Z" fill="#101820"/>
<path d="M586.4 53.2001H604.6V71.0001C606.8 65.4001 610.5 60.4001 615.2 56.7001C620.1 53.1001 626.2 51.4001 632.3 51.9001V71.0001H631.3C627.6 71.0001 623.9 71.6001 620.4 72.9001C617.2 74.2001 614.3 76.2001 611.9 78.7001C609.4 81.5001 607.5 84.7001 606.4 88.3001C605 92.7001 604.3 97.3001 604.4 101.9V131.9H586.4V53.2001Z" fill="#101820"/>
<path d="M668.9 58.8001L630.6 97.1001L668.9 85.5001L698.7 119L700.6 75.1001L740.3 58.9001L701.4 42.6001L696.5 1.1001L671.3 32.7001L630.6 25.4001L668.9 58.8001Z" fill="#FFC00E"/>
<path d="M505.401 156C498.301 156.1 491.801 159.6 487.801 165.5C483.901 159.6 477.301 156.1 470.301 156C458.701 156 449.301 165.4 449.301 177C449.301 184.4 453.901 189.7 458.801 194.6L477.801 212.6C478.001 212.8 478.301 213 478.601 213C478.901 213 479.201 213 479.501 212.9C479.801 212.8 480.001 212.6 480.201 212.3C480.401 212 480.501 211.7 480.401 211.4V197.4C480.401 193.3 483.701 190.1 487.701 190.1C491.701 190.1 495.001 193.4 495.001 197.4V211.4C495.001 212 495.401 212.6 495.901 212.9C496.201 213 496.501 213.1 496.801 213C497.101 212.9 497.401 212.8 497.601 212.6L516.601 194.6C521.501 189.7 526.101 184.4 526.101 177C526.301 165.4 516.901 156 505.401 156ZM468.901 193.1C468.801 193.2 468.601 193.4 468.401 193.5C468.201 193.6 468.001 193.6 467.801 193.6C467.401 193.6 467.101 193.5 466.801 193.2C461.301 189.1 457.901 182.8 457.401 176C457.501 170.7 460.201 165.7 464.501 162.7C464.701 162.6 464.801 162.5 465.001 162.5C465.201 162.5 465.401 162.5 465.601 162.5C465.801 162.5 466.001 162.6 466.101 162.7C466.301 162.8 466.401 162.9 466.501 163.1C466.601 163.3 466.701 163.4 466.701 163.6C466.801 164.2 466.501 164.8 466.101 165.1C464.401 166.4 462.901 168 461.901 169.9C460.901 171.8 460.301 173.9 460.301 176C460.801 182 463.901 187.5 468.801 191.1C468.901 191.2 469.101 191.4 469.101 191.6C469.201 191.8 469.201 192 469.201 192.1C469.201 192.3 469.201 192.5 469.101 192.6C469.101 192.9 469.001 193 468.901 193.1ZM478.201 187.8C478.101 188 477.901 188.2 477.701 188.3C477.501 188.4 477.201 188.5 477.001 188.5C476.801 188.6 476.501 188.6 476.301 188.5C472.001 186.1 469.301 181.7 469.201 176.9C469.201 172.5 471.601 168.5 475.501 166.5C475.801 166.3 476.201 166.3 476.601 166.4C477.401 166.6 477.801 167.4 477.501 168.2C477.401 168.6 477.101 168.9 476.801 169.1C475.301 169.9 474.101 171 473.301 172.4C472.501 173.8 472.001 175.4 472.101 177.1C472.201 179 472.701 180.8 473.701 182.4C474.701 184 476.101 185.3 477.701 186.2C478.201 186.5 478.401 187.2 478.201 187.8ZM487.901 184C486.601 184 485.401 183.6 484.401 183C482.301 181.6 481.201 179 481.701 176.5C482.201 174 484.201 172 486.701 171.5C490.101 170.8 493.501 173.1 494.201 176.5C494.301 176.9 494.301 177.3 494.301 177.7C494.301 178.5 494.101 179.3 493.801 180.1C492.701 182.5 490.401 184 487.901 184ZM499.601 188.3C499.401 188.4 499.101 188.4 498.901 188.3C498.601 188.3 498.401 188.2 498.201 188.1C498.001 188 497.801 187.8 497.701 187.6C497.501 187.3 497.501 186.9 497.601 186.5C497.701 186.1 497.901 185.8 498.301 185.6C501.701 183.8 503.801 180.3 504.001 176.5C504.101 173.1 502.201 170 499.201 168.5C499.001 168.4 498.901 168.3 498.801 168.1C498.701 168 498.601 167.8 498.501 167.6C498.401 167.4 498.401 167.2 498.401 167C498.401 166.8 498.501 166.6 498.601 166.5C498.701 166.3 498.801 166.2 498.901 166C499.001 165.9 499.201 165.8 499.401 165.7C499.601 165.6 499.801 165.6 500.001 165.6C500.201 165.6 500.401 165.7 500.501 165.8C504.301 167.9 506.701 171.8 506.801 176.2C506.601 181.3 503.901 185.8 499.601 188.3ZM518.601 176C518.101 182.8 514.701 189.1 509.101 193.2C509.001 193.3 508.801 193.4 508.601 193.5C508.201 193.6 507.901 193.6 507.501 193.5C507.301 193.4 507.201 193.3 507.001 193.2C506.901 193.1 506.801 192.9 506.701 192.7C506.601 192.5 506.601 192.3 506.601 192.2C506.601 192 506.601 191.8 506.701 191.7C506.801 191.5 506.901 191.4 507.001 191.2C511.901 187.6 514.901 182.1 515.501 176.1C515.301 171.8 513.201 167.7 509.701 165.2C509.501 165.1 509.401 165 509.301 164.8C509.101 164.5 509.001 164.1 509.001 163.7C509.001 163.5 509.101 163.3 509.201 163.2C509.401 162.9 509.701 162.6 510.101 162.6C510.301 162.6 510.501 162.6 510.701 162.6C510.901 162.6 511.101 162.7 511.201 162.8C515.601 165.9 518.201 170.8 518.401 176.2L518.601 176Z" fill="#C5202D"/>
<path d="M552.199 169.1H562.899V183.5H576.599V169.1H587.299V207.7H576.599V193H562.899V207.7H552.199V169.1Z" fill="#081019"/>
<path d="M590.401 192.9C590.201 188.8 591.7 184.8 594.6 181.9C596 180.4 597.7 179.3 599.6 178.5C601.5 177.7 603.5 177.3 605.5 177.3C615.7 177.3 620.5 184.8 620.5 193.6V195.6H600.5C601.1 198.7 603.9 200.8 607 200.6C609.5 200.6 611.9 199.5 613.6 197.6L619.401 202.4C616.301 206.4 611.401 208.6 606.401 208.4C602.201 208.7 598 207.2 595 204.2C592 201.2 590.3 197.2 590.5 192.9H590.401ZM610.6 190.2C610.6 189.5 610.5 188.8 610.3 188.2C609.8 186.9 608.8 185.9 607.5 185.3C606.9 185 606.2 184.9 605.5 184.9C602.6 185 600.3 187.3 600.3 190.2H610.6Z" fill="#081019"/>
<path d="M655.5 177.9H666V183.9C667.2 179.8 671.2 177.1 675.4 177.4V188.4H674.5C669.1 188.4 666 191.5 666 198.4V207.7H655.5V177.9Z" fill="#081019"/>
<path d="M681.9 198.4V186.4H678.4V177.9H681.9V170.4H692.4V177.9H699.4V186.3H692.4V196.3C692.4 198.4 693.4 199.3 695.3 199.3C696.7 199.3 698.1 198.9 699.3 198.3V206.3C697.1 207.5 694.6 208.1 692 208C687.2 208.7 682.8 205.5 682 200.7C681.9 200 681.8 199.2 681.9 198.4Z" fill="#081019"/>
<path d="M541.9 166.4C539.7 166.4 537.6 167.8 536.8 169.8C536.4 170.8 536.3 171.9 536.5 173C536.7 174.1 537.2 175.1 538 175.8C539.6 177.4 541.9 177.8 544 177C546.8 175.8 548.2 172.6 547 169.7C546.1 167.7 544.1 166.4 541.9 166.4Z" fill="#081019"/>
<path d="M651.4 192.7C651.5 188.5 649.9 184.4 646.9 181.4C645.4 179.9 643.6 178.8 641.6 178.1C639.6 177.4 637.5 177.1 635.4 177.2C630.3 177.1 625.5 179.4 622.5 183.5L628.3 188.3C629.1 187.4 630.2 186.6 631.3 186.1C632.4 185.6 633.7 185.3 634.9 185.3C637.9 185.1 640.7 187.1 641.3 190.1V190.3H634.4C625.8 190.3 621.4 193.6 621.4 199.6C621.4 205.6 625.4 208.5 632.6 208.5C635.9 208.6 639.1 207.3 641.5 204.9V207.8H651.4V192.7ZM635.8 201.7C633.1 201.7 631.5 200.3 631.5 198.4C631.5 196.5 632.9 195.6 635.5 195.6H641.5V195.9C641.5 196.6 641.4 197.4 641.1 198.1C640.8 198.8 640.4 199.4 639.9 200C639.4 200.5 638.7 201 638.1 201.2C637.4 201.6 636.6 201.7 635.8 201.7Z" fill="#081019"/>
<path d="M542.099 180.1H541.699C540.999 180.1 540.299 180.2 539.599 180.5C538.899 180.8 538.299 181.2 537.799 181.7C537.299 182.2 536.899 182.8 536.599 183.5C536.299 184.2 536.199 184.9 536.199 185.6V207.7H547.499V185.5C547.499 184.8 547.399 184.1 547.099 183.4C546.799 182.8 546.399 182.2 545.999 181.7C545.499 181.2 544.899 180.8 544.199 180.5C543.599 180.3 542.899 180.1 542.099 180.1Z" fill="#081019"/>
<path d="M329.799 168.5C329.799 168.2 329.899 167.8 329.999 167.5C330.099 167.2 330.299 166.9 330.599 166.6C330.799 166.4 331.099 166.2 331.499 166C331.799 165.9 332.199 165.8 332.499 165.8H349.899C350.199 165.8 350.599 165.8 350.899 165.9C351.199 166 351.499 166.2 351.799 166.4C352.099 166.6 352.299 166.9 352.399 167.2C352.499 167.5 352.599 167.9 352.599 168.2C352.599 168.5 352.499 168.9 352.399 169.2C352.299 169.5 352.099 169.8 351.799 170C351.499 170.2 351.199 170.4 350.899 170.5C350.599 170.6 350.199 170.6 349.899 170.6H335.199V178.6H347.999C348.599 178.6 349.199 178.8 349.699 179.3C350.199 179.7 350.399 180.4 350.399 181C350.399 182.3 349.299 183.4 347.999 183.4H335.099V193.1C335.099 193.4 334.999 193.8 334.899 194.1C334.799 194.4 334.599 194.7 334.299 194.9C334.099 195.1 333.799 195.3 333.399 195.5C333.099 195.6 332.699 195.7 332.399 195.7C332.099 195.7 331.699 195.6 331.399 195.5C331.099 195.4 330.799 195.2 330.499 194.9C330.299 194.7 330.099 194.4 329.899 194C329.799 193.7 329.699 193.3 329.699 193L329.799 168.5Z" fill="#081019"/>
<path d="M357.199 175.5C357.199 175.2 357.199 174.8 357.399 174.5C357.499 174.2 357.699 173.9 357.899 173.7C358.099 173.5 358.399 173.3 358.699 173.1C359.299 172.8 360.099 172.8 360.699 173.1C360.999 173.2 361.299 173.4 361.499 173.7C361.999 174.2 362.299 174.9 362.299 175.5V177.8C363.099 175.2 365.299 173.3 367.999 172.8C368.299 172.8 368.699 172.8 368.999 172.9C369.299 173 369.599 173.2 369.899 173.4C370.099 173.6 370.299 173.9 370.399 174.3C370.499 174.6 370.599 175 370.499 175.3C370.499 175.9 370.299 176.5 369.999 176.9C369.599 177.4 369.099 177.7 368.499 177.8C364.799 178.4 362.299 181.2 362.299 186.6V193.2C362.299 194.6 361.099 195.8 359.699 195.7C358.299 195.7 357.199 194.6 357.199 193.2V175.5Z" fill="#081019"/>
<path d="M372.799 184.6C372.299 178 377.299 172.3 383.899 171.8C390.499 171.3 396.199 176.3 396.699 182.9C396.699 183.5 396.699 184 396.699 184.6C396.599 191.1 391.199 196.3 384.699 196.3C378.299 196.5 372.899 191.4 372.699 185C372.699 184.8 372.699 184.7 372.799 184.6ZM391.599 184.6C391.599 183.7 391.499 182.7 391.199 181.9C389.899 178.3 385.899 176.5 382.299 177.8C382.199 177.8 382.099 177.9 381.999 177.9C380.299 178.6 378.899 180 378.299 181.8C377.999 182.7 377.799 183.6 377.899 184.5C377.899 185.4 377.999 186.4 378.299 187.2C378.599 188.1 379.099 188.9 379.799 189.5C380.399 190.2 381.199 190.7 382.099 191.1C382.999 191.5 383.899 191.7 384.799 191.7C388.499 191.7 391.599 188.7 391.599 185C391.599 184.9 391.599 184.7 391.599 184.6Z" fill="#081019"/>
<path d="M402 175.5C402 175.2 402 174.8 402.2 174.5C402.3 174.2 402.5 173.9 402.7 173.6C402.9 173.4 403.2 173.2 403.5 173C403.8 172.9 404.2 172.8 404.5 172.8C404.8 172.8 405.2 172.9 405.5 173C405.8 173.1 406.1 173.3 406.3 173.6C406.8 174.1 407.1 174.8 407.1 175.4V176.5C407.8 175.3 408.8 174.3 410 173.6C411.2 172.9 412.6 172.5 414 172.5C415.4 172.4 416.8 172.8 418 173.5C419.2 174.2 420.1 175.3 420.8 176.5C422.5 174 425.3 172.5 428.4 172.5C429.5 172.4 430.6 172.6 431.7 173C432.7 173.4 433.7 174.1 434.5 174.9C435.2 175.7 435.8 176.7 436.1 177.8C436.4 178.9 436.5 180 436.4 181.1V193.1C436.2 194.4 435.1 195.4 433.8 195.4C432.5 195.4 431.4 194.4 431.2 193.1V182.8C431.2 179.2 429.5 177.3 426.6 177.3C423.7 177.3 421.8 179.3 421.8 182.9V193.2C421.6 194.6 420.3 195.6 418.9 195.4C417.7 195.2 416.8 194.3 416.7 193.2V182.8C416.7 179.3 415 177.3 412.1 177.3C409.2 177.3 407.3 179.4 407.3 182.9V193.2C407.3 193.5 407.2 193.9 407.1 194.2C406.8 194.8 406.3 195.3 405.7 195.6C405.1 195.8 404.3 195.8 403.7 195.6C403.4 195.5 403.1 195.3 402.9 195.1C402.7 194.9 402.5 194.6 402.4 194.3C402.3 194 402.2 193.6 402.2 193.3L402 175.5Z" fill="#081019"/>
</g>
</g>
<defs>
<clipPath id="clip0_7470_97736">
<rect width="742" height="215" fill="white"/>
</clipPath>
</defs>
</svg>
