<?xml version="1.0" encoding="UTF-8"?>
<svg width="1148px" height="299px" viewBox="0 0 1148 299" version="1.1" xmlns="http://www.w3.org/2000/svg" xmlns:xlink="http://www.w3.org/1999/xlink">
    <!-- Generator: Sketch 61 (89581) - https://sketch.com -->
    <title>Group 2</title>
    <desc>Created with Sketch.</desc>
    <g id="App" stroke="none" stroke-width="1" fill="none" fill-rule="evenodd">
        <g id="Artboard" transform="translate(0.000000, -2260.000000)">
            <g id="Group-2" transform="translate(0.000000, 2259.000000)">
                <g id="podnews" fill-rule="nonzero">
                    <g id="Group" transform="translate(76.000000, 150.000000) scale(-1, 1) rotate(-180.000000) translate(-76.000000, -150.000000) ">
                        <g transform="translate(-0.000000, 0.000000)">
                            <rect id="Rectangle" fill="#FFFFFF" x="19.7298879" y="84.395949" width="101.579621" height="190.476968"></rect>
                            <g transform="translate(45.613157, 0.000000)" fill="#B01212" id="Path">
                                <path d="M12.209089,24.7131656 C19.0657134,24.7131656 24.6525926,19.1258412 24.6525926,12.395655 C24.6525926,5.53848416 19.0657134,0.0781443973 12.3360636,0.0781443973 C5.47943916,0.0781443973 0.0195345424,5.6654688 0.0195345424,12.5226397 C-0.107439983,19.1258412 5.35246463,24.7131656 12.209089,24.7131656"></path>
                            </g>
                            <g transform="translate(-0.000000, 0.195361)" fill="#B01212" id="Shape">
                                <path d="M121.309509,207.375694 C121.309509,203.693139 118.389095,200.772493 114.706833,200.772493 C111.024572,200.772493 108.104158,203.693139 108.104158,207.375694 L108.104158,232.772623 C108.104158,236.455178 111.024572,239.375825 114.706833,239.375825 C118.389095,239.375825 121.309509,236.328193 121.309509,232.772623 L121.309509,207.375694 Z M75.8526283,298.677654 C75.8526283,298.677654 0.0488363561,302.741163 0.0488363561,219.56622 L0.0488363561,84.0736034 L37.5063215,84.0736034 L37.5063215,107.946717 L30.0148245,107.946717 L30.0148245,220.074159 C30.0148245,222.359882 30.141799,224.645606 30.5227226,226.804345 C33.6970857,249.407612 52.7432646,267.058478 75.9796029,268.201339 C76.74145,268.201339 77.5032972,268.201339 78.2651443,268.201339 C96.6764506,268.201339 112.675241,257.915583 120.801611,242.677426 C119.023967,243.820287 116.992375,244.328226 114.833808,244.328226 C108.358107,244.328226 103.152151,239.121856 103.152151,232.645639 L103.152151,207.375694 C103.152151,200.899477 108.358107,195.693107 114.833808,195.693107 C116.992375,195.693107 119.023967,196.32803 120.801611,197.343907 C112.675241,182.232734 96.6764506,171.819993 78.2651443,171.819993 C69.1229785,171.819993 60.6156852,174.359686 53.3781372,178.804149 L53.3781372,107.946717 L46.0136147,107.946717 L46.0136147,65.6608298 C46.0136147,62.359229 47.4103345,59.4385822 49.5689015,57.1528585 C51.7274684,54.9941196 54.774857,53.5972885 58.0761947,53.5972885 C64.67887,53.5972885 70.0118001,58.9306436 70.0118001,65.5338451 L70.0118001,73.2799085 C70.0118001,74.4227703 70.2657492,75.4386475 70.6466728,76.4545247 C71.916418,79.6291408 74.9638066,81.7878798 78.5190934,81.7878798 C82.0743801,81.7878798 85.2487432,79.6291408 86.5184885,76.4545247 C86.8994121,75.4386475 87.1533611,74.4227703 87.1533611,73.2799085 L87.1533611,51.1845802 C87.1533611,47.8829794 88.5500809,44.9623326 90.7086479,42.676609 C92.8672148,40.51787 95.7876289,39.1210389 99.0889666,39.1210389 C105.691642,39.1210389 111.024572,44.454394 111.024572,51.0575956 L111.024572,73.1529239 C111.024572,74.2957857 111.278521,75.3116629 111.659445,76.32754 C112.92919,79.5021562 115.976579,81.6608951 119.531865,81.6608951 C123.087152,81.6608951 126.261515,79.5021562 127.404286,76.32754 C127.785209,75.3116629 128.039158,74.2957857 128.039158,73.1529239 L128.039158,12.0733094 C128.039158,8.77170859 129.435878,5.85106174 131.594445,3.56533812 C133.753012,1.40659915 136.673426,0.00976804966 139.974764,0.00976804966 C143.276102,0.00976804966 146.196516,1.40659915 148.355083,3.56533812 C150.51365,5.7240771 151.910369,8.77170859 151.910369,12.0733094 L151.910369,215.883665 C151.910369,304.264979 76.1065774,298.677654 76.1065774,298.677654"></path>
                            </g>
                        </g>
                    </g>
                </g>
                <g id="podnews_txt" transform="translate(222.000000, 33.000000)">
                    <rect id="Rectangle" x="0" y="0" width="925" height="234"></rect>
                    <g id="Group" fill-rule="nonzero">
                        <g id="svg-text" transform="translate(380.491938, 0.000000)" fill="#1D1F24">
                            <path d="M508.189412,31.1368872 L515.100268,31.1368872 C517.313828,31.1368872 519.007427,30.6569833 520.171623,29.6934943 C521.337735,28.7318665 521.923529,27.3049918 521.923529,25.4090247 C521.923529,23.5441233 521.337735,22.1464395 520.171623,21.2103622 C519.007332,20.2779388 517.313828,19.8126783 515.100268,19.8126783 L508.189412,19.8126783 L508.189412,31.1368872 Z M521.483773,45.3027202 L516.193429,36.252057 C515.958017,36.2812519 515.594866,36.2958501 515.100309,36.2958501 L508.189453,36.2958501 L508.189453,45.3027202 L502.333299,45.3027202 L502.333299,14.6966874 L515.100309,14.6966874 C519.063995,14.6966874 522.124354,15.6145221 524.281388,17.453873 C526.436642,19.2894877 527.518717,21.8842283 527.518717,25.2363157 C527.518717,27.6267342 527.000441,29.6648919 525.965681,31.354621 C524.932782,33.04435 523.423639,34.3143496 521.441796,35.1591457 L528.173902,45.3027202 L521.483814,45.3027202" id="Shape"></path>
                            <path d="M515.25178,5.47413629 C501.727482,5.47413629 490.723737,16.4753711 490.723737,29.9982668 C490.723737,43.5211626 501.727892,54.5237659 515.25178,54.5237659 C528.777995,54.5237659 539.779824,43.5211626 539.779824,29.9982668 C539.779824,16.4753711 528.777448,5.47413629 515.25178,5.47413629 Z M515.25178,59.9979022 C498.708593,59.9979022 485.249033,46.5391908 485.249033,29.9982668 C485.249033,13.4567955 498.709551,0 515.25178,0 C531.796336,0 545.254528,13.4572061 545.254528,29.9982668 C545.254528,46.5397382 531.795926,59.9979022 515.25178,59.9979022" id="Shape"></path>
                            <path d="M77.0701476,191.334749 L77.0701476,137.190067 C77.0701476,121.450556 68.4639126,109.486831 52.0931786,109.486831 C36.3520355,109.486831 25.6462516,122.711113 25.6462516,138.450486 L25.6462516,191.334749 L0.253205067,191.334749 L0.253205067,87.6614499 L23.1278876,87.6614499 L24.8086218,101.724506 C35.3018504,91.4384671 45.7945315,86.1930129 58.8106406,86.1930129 C83.1552812,86.1930129 102.67397,104.453363 102.67397,136.977944 L102.67397,191.334749 L77.0701476,191.334749 Z" id="Path"></path>
                            <path d="M202.810415,127.536427 C201.127901,114.10495 190.636452,107.3875 175.944673,107.3875 C162.092303,107.3875 150.756928,114.104813 146.979382,127.536427 L202.810415,127.536427 Z M146.559199,148.729546 C148.238153,161.533961 159.360836,170.765681 177.413262,170.765681 C186.857127,170.765681 199.239539,167.198187 205.116634,161.111084 L221.487368,177.270734 C210.572587,188.606028 192.734222,194.05991 176.990342,194.05991 C141.310326,194.05991 120.112272,172.025143 120.112272,138.866931 C120.112272,107.386542 141.522471,84.7222493 175.101569,84.7222493 C209.730441,84.7222493 231.350048,106.128859 227.364463,148.729956 L146.55783,148.729956" id="Shape"></path>
                            <polyline id="Path" points="337.98086 87.6614499 360.647504 165.52009 384.365291 87.6614499 412.698254 87.6614499 376.596686 191.752151 346.793765 191.752151 336.090719 161.112042 326.856672 126.485393 317.620846 161.112042 306.914104 191.752151 277.111183 191.752151 240.802946 87.6614499 269.346684 87.6614499 293.063103 165.52009 315.520339 87.6614499 337.978944 87.6614499"></polyline>
                            <path d="M501.907189,115.363317 C494.561915,108.436481 486.166046,106.128586 476.301998,106.128586 C464.128035,106.128586 457.4129,109.905603 457.4129,116.412435 C457.4129,123.127558 463.500771,126.902385 476.722181,127.744308 C496.24087,129.005179 521.008432,133.411544 521.008432,160.90252 C521.008432,179.160133 506.106287,194.901011 476.510036,194.901011 C460.140671,194.901011 443.769937,192.173112 428.657016,176.432644 L441.252531,158.175031 C448.597805,166.360507 465.386396,172.446104 476.931178,172.65549 C486.584861,172.86515 495.610869,167.829355 495.610869,160.273131 C495.610869,153.138278 489.732816,150.198667 475.041036,149.361124 C455.522348,147.888582 432.224744,140.755782 432.224744,117.249841 C432.224744,93.3278653 456.992306,84.9319087 475.881404,84.9319087 C492.04273,84.9319087 504.217104,88.0774843 516.179332,98.5730458 L501.906778,115.362222" id="Path"></path>
                        </g>
                        <path d="M86.6823594,139.713643 C86.6823594,123.553993 75.7679892,110.332585 57.2982536,110.332585 C38.8279705,110.332585 27.9141477,123.554677 27.9141477,139.713643 C27.9141477,155.871925 39.8773344,169.094701 57.2982536,169.094701 C74.7173935,169.094701 86.6823594,155.871241 86.6823594,139.713643 Z M0,234.569477 L0,87.8763098 L23.9258258,87.8763098 L25.605465,102.147383 C33.5808771,90.6046193 47.4317417,85.5662243 59.1873002,85.5662243 C91.0897699,85.5662243 112.287824,109.281551 112.287824,139.712275 C112.287824,169.930876 93.1865816,193.856957 60.0262986,193.856957 C49.1124759,193.856957 32.952518,190.497479 25.6068337,179.165744 L25.6068337,234.569477 L0.00164241124,234.569477" id="Shape" fill="#B01212"></path>
                        <path d="M151.9641,139.713643 C151.9641,155.453154 161.408512,170.144367 180.087655,170.144367 C198.767346,170.144367 208.211211,155.453154 208.211211,139.713643 C208.211211,124.183519 197.298346,109.074903 180.087655,109.074903 C161.618741,109.074903 151.9641,124.183519 151.9641,139.713643 Z M234.027178,139.713643 C234.027178,169.513473 213.670859,193.647571 180.089024,193.647571 C146.508558,193.647571 126.358909,169.512104 126.358909,139.713643 C126.358909,110.120463 146.927372,85.7783471 179.878248,85.7783471 C212.829124,85.7783471 234.027178,110.120463 234.027178,139.713643" id="Shape" fill="#B01212"></path>
                        <path d="M272.448652,139.494678 C272.448652,157.5388 285.460244,169.921296 301.831389,169.921296 C317.992715,169.921296 331.845086,158.170378 331.845086,139.494678 C331.845086,121.445082 317.992715,109.271971 301.831389,109.271971 C285.460655,109.271971 272.448652,120.81323 272.448652,139.494678 Z M359.130053,44.6347387 L359.130053,191.327906 L335.203817,191.327906 L333.524862,177.056833 C325.548218,189.437687 312.746991,193.636623 300.152434,193.636623 C269.718554,193.636623 246.841134,173.489064 246.841134,139.494678 C246.841134,103.814258 269.299739,85.3486274 299.522843,85.3486274 C310.437624,85.3486274 327.436991,91.2255232 333.524862,101.928418 L333.524862,44.6347387 L359.130053,44.6347387" id="Shape" fill="#B01212"></path>
                    </g>
                </g>
            </g>
        </g>
    </g>
</svg>